<svg width="18" height="18" viewBox="0 0 18 18" fill="none" xmlns="http://www.w3.org/2000/svg">
<path d="M6.33333 16.3333C7.06971 16.3333 7.66667 15.7364 7.66667 15C7.66667 14.2636 7.06971 13.6667 6.33333 13.6667C5.59695 13.6667 5 14.2636 5 15C5 15.7364 5.59695 16.3333 6.33333 16.3333Z" stroke="white" stroke-width="1.8" stroke-linecap="round" stroke-linejoin="round"/>
<path d="M14.3333 16.3333C15.0697 16.3333 15.6667 15.7364 15.6667 15C15.6667 14.2636 15.0697 13.6667 14.3333 13.6667C13.597 13.6667 13 14.2636 13 15C13 15.7364 13.597 16.3333 14.3333 16.3333Z" stroke="white" stroke-width="1.8" stroke-linecap="round" stroke-linejoin="round"/>
<path d="M4.78 5H16.3333L15.2133 10.5933C15.1524 10.9003 14.9854 11.176 14.7416 11.3722C14.4979 11.5684 14.1929 11.6727 13.88 11.6667H6.83333C6.50779 11.6694 6.19248 11.553 5.94687 11.3393C5.70126 11.1256 5.54231 10.8295 5.5 10.5067L4.48667 2.82667C4.44465 2.50616 4.28762 2.21183 4.0448 1.99844C3.80199 1.78506 3.48992 1.66716 3.16667 1.66667H1.66667" stroke="white" stroke-width="1.8" stroke-linecap="round" stroke-linejoin="round"/>
</svg>
